RobotoExtremo-opszmax-wght780.ufo
<glyph name="exclam" format="2">
  <advance width="658"/>
  <unicode hex="0021"/>
  <outline>
    <contour>
      <point x="78" y="204" type="qcurve" smooth="yes"/>
      <point x="78" y="111"/>
      <point x="207" y="-22"/>
      <point x="329" y="-22" type="qcurve" smooth="yes"/>
      <point x="451" y="-22"/>
      <point x="580" y="111"/>
      <point x="580" y="203" type="qcurve" smooth="yes"/>
      <point x="580" y="296"/>
      <point x="449" y="429"/>
      <point x="326" y="429" type="qcurve" smooth="yes"/>
      <point x="207" y="429"/>
      <point x="78" y="296"/>
    </contour>
    <contour>
      <point x="129" y="506" type="line"/>
      <point x="528" y="506" type="line"/>
      <point x="538" y="1456" type="line"/>
      <point x="120" y="1456" type="line"/>
    </contour>
  </outline>
</glyph>
<glyph name="zero" format="2">
  <advance width="1234"/>
  <unicode hex="0030"/>
  <outline>
    <contour>
      <point x="42" y="543" type="line" smooth="yes"/>
      <point x="42" y="263"/>
      <point x="347" y="-20"/>
      <point x="617" y="-20" type="qcurve" smooth="yes"/>
      <point x="863" y="-20"/>
      <point x="1192" y="261"/>
      <point x="1192" y="543" type="qcurve" smooth="yes"/>
      <point x="1192" y="913" type="line" smooth="yes"/>
      <point x="1192" y="1188"/>
      <point x="884" y="1476"/>
      <point x="617" y="1476" type="qcurve" smooth="yes"/>
      <point x="350" y="1476"/>
      <point x="42" y="1180"/>
      <point x="42" y="913" type="qcurve" smooth="yes"/>
    </contour>
    <contour>
      <point x="518" y="436" type="qcurve" smooth="yes"/>
      <point x="518" y="1009" type="line" smooth="yes"/>
      <point x="518" y="1082"/>
      <point x="567" y="1158"/>
      <point x="617" y="1158" type="qcurve" smooth="yes"/>
      <point x="667" y="1158"/>
      <point x="715" y="1082"/>
      <point x="715" y="1009" type="qcurve" smooth="yes"/>
      <point x="715" y="436" type="line" smooth="yes"/>
      <point x="715" y="366"/>
      <point x="667" y="291"/>
      <point x="617" y="291" type="qcurve" smooth="yes"/>
      <point x="567" y="291"/>
      <point x="518" y="366"/>
    </contour>
  </outline>
</glyph>
<glyph name="three" format="2">
  <advance width="1234"/>
  <unicode hex="0033"/>
  <outline>
    <contour>
      <point x="51" y="439" type="line" smooth="yes"/>
      <point x="51" y="219"/>
      <point x="366" y="-20"/>
      <point x="629" y="-20" type="qcurve" smooth="yes"/>
      <point x="900" y="-20"/>
      <point x="1208" y="235"/>
      <point x="1208" y="425" type="qcurve" smooth="yes"/>
      <point x="1208" y="569"/>
      <point x="1066" y="738"/>
      <point x="979" y="763" type="qcurve"/>
      <point x="979" y="767" type="line"/>
      <point x="1076" y="813"/>
      <point x="1174" y="971"/>
      <point x="1174" y="1084" type="qcurve" smooth="yes"/>
      <point x="1174" y="1262"/>
      <point x="890" y="1476"/>
      <point x="629" y="1476" type="qcurve" smooth="yes"/>
      <point x="374" y="1476"/>
      <point x="75" y="1243"/>
      <point x="75" y="1023" type="qcurve" smooth="yes"/>
      <point x="75" y="956" type="line"/>
      <point x="522" y="956" type="line"/>
      <point x="522" y="1008" type="line" smooth="yes"/>
      <point x="522" y="1095"/>
      <point x="573" y="1163"/>
      <point x="618" y="1163" type="qcurve" smooth="yes"/>
      <point x="664" y="1163"/>
      <point x="707" y="1091"/>
      <point x="707" y="1025" type="qcurve" smooth="yes"/>
      <point x="707" y="935"/>
      <point x="648" y="859"/>
      <point x="593" y="859" type="qcurve" smooth="yes"/>
      <point x="472" y="859" type="line"/>
      <point x="472" y="637" type="line"/>
      <point x="593" y="637" type="line" smooth="yes"/>
      <point x="652" y="637"/>
      <point x="718" y="561"/>
      <point x="718" y="430" type="qcurve" smooth="yes"/>
      <point x="718" y="361"/>
      <point x="668" y="291"/>
      <point x="615" y="291" type="qcurve" smooth="yes"/>
      <point x="565" y="291"/>
      <point x="514" y="368"/>
      <point x="513" y="454" type="qcurve" smooth="yes"/>
      <point x="513" y="529" type="line"/>
      <point x="51" y="529" type="line"/>
    </contour>
  </outline>
</glyph>
<glyph name="six" format="2">
  <advance width="1234"/>
  <unicode hex="0036"/>
  <outline>
    <contour>
      <point x="37" y="614" type="line" smooth="yes"/>
      <point x="37" y="271"/>
      <point x="355" y="-20"/>
      <point x="615" y="-20" type="qcurve" smooth="yes"/>
      <point x="881" y="-20"/>
      <point x="1202" y="278"/>
      <point x="1202" y="518" type="qcurve" smooth="yes"/>
      <point x="1202" y="700"/>
      <point x="990" y="941"/>
      <point x="770" y="941" type="qcurve" smooth="yes"/>
      <point x="615" y="941"/>
      <point x="461" y="723"/>
      <point x="461" y="465" type="qcurve"/>
      <point x="512" y="465" type="line"/>
      <point x="512" y="634"/>
      <point x="573" y="734"/>
      <point x="626" y="734" type="qcurve" smooth="yes"/>
      <point x="675" y="734"/>
      <point x="724" y="647"/>
      <point x="724" y="518" type="qcurve" smooth="yes"/>
      <point x="724" y="361"/>
      <point x="666" y="290"/>
      <point x="620" y="290" type="qcurve" smooth="yes"/>
      <point x="572" y="290"/>
      <point x="512" y="377"/>
      <point x="512" y="549" type="qcurve" smooth="yes"/>
      <point x="512" y="569" type="line" smooth="yes"/>
      <point x="512" y="941"/>
      <point x="776" y="1134"/>
      <point x="1014" y="1134" type="qcurve" smooth="yes"/>
      <point x="1048" y="1134" type="line"/>
      <point x="1048" y="1476" type="line"/>
      <point x="998" y="1476" type="line" smooth="yes"/>
      <point x="434" y="1476"/>
      <point x="37" y="1037"/>
      <point x="37" y="644" type="qcurve" smooth="yes"/>
    </contour>
  </outline>
</glyph>
<glyph name="seven" format="2">
  <advance width="1234"/>
  <unicode hex="0037"/>
  <outline>
    <contour>
      <point x="245" y="0" type="line"/>
      <point x="743" y="0" type="line"/>
      <point x="1191" y="1076" type="line"/>
      <point x="1191" y="1456" type="line"/>
      <point x="55" y="1456" type="line"/>
      <point x="55" y="1064" type="line"/>
      <point x="693" y="1064" type="line"/>
    </contour>
  </outline>
</glyph>
<glyph name="eight" format="2">
  <advance width="1234"/>
  <unicode hex="0038"/>
  <outline>
    <contour>
      <point x="39" y="423" type="qcurve" smooth="yes"/>
      <point x="39" y="231"/>
      <point x="352" y="-20"/>
      <point x="618" y="-20" type="qcurve" smooth="yes"/>
      <point x="884" y="-20"/>
      <point x="1196" y="231"/>
      <point x="1196" y="423" type="qcurve" smooth="yes"/>
      <point x="1196" y="563"/>
      <point x="1060" y="733"/>
      <point x="975" y="759" type="qcurve"/>
      <point x="975" y="763" type="line"/>
      <point x="1067" y="809"/>
      <point x="1164" y="953"/>
      <point x="1164" y="1064" type="qcurve" smooth="yes"/>
      <point x="1164" y="1242"/>
      <point x="880" y="1476"/>
      <point x="618" y="1476" type="qcurve" smooth="yes"/>
      <point x="355" y="1476"/>
      <point x="72" y="1245"/>
      <point x="72" y="1064" type="qcurve" smooth="yes"/>
      <point x="72" y="955"/>
      <point x="167" y="809"/>
      <point x="260" y="762" type="qcurve"/>
      <point x="260" y="758" type="line"/>
      <point x="175" y="732"/>
      <point x="39" y="562"/>
    </contour>
    <contour>
      <point x="515" y="458" type="qcurve" smooth="yes"/>
      <point x="515" y="553"/>
      <point x="569" y="634"/>
      <point x="618" y="634" type="qcurve" smooth="yes"/>
      <point x="666" y="634"/>
      <point x="718" y="553"/>
      <point x="718" y="457" type="qcurve" smooth="yes"/>
      <point x="718" y="354"/>
      <point x="665" y="283"/>
      <point x="617" y="283" type="qcurve" smooth="yes"/>
      <point x="568" y="283"/>
      <point x="515" y="354"/>
    </contour>
    <contour>
      <point x="525" y="1014" type="qcurve" smooth="yes"/>
      <point x="525" y="1097"/>
      <point x="571" y="1166"/>
      <point x="617" y="1166" type="qcurve" smooth="yes"/>
      <point x="663" y="1166"/>
      <point x="709" y="1095"/>
      <point x="709" y="1014" type="qcurve" smooth="yes"/>
      <point x="709" y="925"/>
      <point x="661" y="851"/>
      <point x="617" y="851" type="qcurve" smooth="yes"/>
      <point x="573" y="851"/>
      <point x="525" y="925"/>
    </contour>
  </outline>
</glyph>
<glyph name="colon" format="2">
  <advance width="600"/>
  <unicode hex="003A"/>
  <outline>
    <contour>
      <point x="72" y="194" type="qcurve" smooth="yes"/>
      <point x="72" y="104"/>
      <point x="190" y="-19"/>
      <point x="300" y="-19" type="qcurve" smooth="yes"/>
      <point x="410" y="-19"/>
      <point x="529" y="103"/>
      <point x="529" y="194" type="qcurve" smooth="yes"/>
      <point x="529" y="283"/>
      <point x="410" y="404"/>
      <point x="300" y="404" type="qcurve" smooth="yes"/>
      <point x="190" y="404"/>
      <point x="72" y="283"/>
    </contour>
    <contour>
      <point x="72" y="825" type="qcurve" smooth="yes"/>
      <point x="72" y="735"/>
      <point x="190" y="612"/>
      <point x="300" y="612" type="qcurve" smooth="yes"/>
      <point x="410" y="612"/>
      <point x="529" y="733"/>
      <point x="529" y="824" type="qcurve" smooth="yes"/>
      <point x="529" y="913"/>
      <point x="410" y="1035"/>
      <point x="300" y="1035" type="qcurve" smooth="yes"/>
      <point x="190" y="1035"/>
      <point x="72" y="913"/>
    </contour>
  </outline>
</glyph>
<glyph name="question" format="2">
  <advance width="1168"/>
  <unicode hex="003F"/>
  <outline>
    <contour>
      <point x="284" y="204" type="qcurve" smooth="yes"/>
      <point x="284" y="111"/>
      <point x="419" y="-22"/>
      <point x="541" y="-22" type="qcurve" smooth="yes"/>
      <point x="666" y="-22"/>
      <point x="797" y="111"/>
      <point x="797" y="203" type="qcurve" smooth="yes"/>
      <point x="797" y="296"/>
      <point x="665" y="429"/>
      <point x="540" y="429" type="qcurve" smooth="yes"/>
      <point x="416" y="429"/>
      <point x="284" y="296"/>
    </contour>
    <contour>
      <point x="37" y="995" type="line"/>
      <point x="435" y="995" type="line"/>
      <point x="435" y="1017" type="line" smooth="yes"/>
      <point x="435" y="1092"/>
      <point x="484" y="1157"/>
      <point x="538" y="1157" type="qcurve" smooth="yes"/>
      <point x="591" y="1157"/>
      <point x="636" y="1109"/>
      <point x="636" y="1060" type="qcurve" smooth="yes"/>
      <point x="636" y="1013"/>
      <point x="600" y="957"/>
      <point x="516" y="888" type="qcurve" smooth="yes"/>
      <point x="403" y="796"/>
      <point x="315" y="658"/>
      <point x="315" y="561" type="qcurve" smooth="yes"/>
      <point x="315" y="509" type="line"/>
      <point x="766" y="509" type="line"/>
      <point x="766" y="544" type="line" smooth="yes"/>
      <point x="766" y="597"/>
      <point x="839" y="686"/>
      <point x="927" y="763" type="qcurve" smooth="yes"/>
      <point x="1017" y="844"/>
      <point x="1125" y="989"/>
      <point x="1125" y="1138" type="qcurve" smooth="yes"/>
      <point x="1125" y="1293"/>
      <point x="841" y="1476"/>
      <point x="561" y="1476" type="qcurve" smooth="yes"/>
      <point x="306" y="1476"/>
      <point x="37" y="1256"/>
      <point x="37" y="1085" type="qcurve" smooth="yes"/>
    </contour>
  </outline>
</glyph>
<glyph name="A" format="2">
  <advance width="1398"/>
  <unicode hex="0041"/>
  <anchor x="689.0" y="1432.0" name="top"/>
  <outline>
    <contour>
      <point x="-18" y="0" type="line"/>
      <point x="448" y="0" type="line"/>
      <point x="659" y="847" type="line" smooth="yes"/>
      <point x="668" y="888"/>
      <point x="684" y="948"/>
      <point x="687" y="961" type="qcurve"/>
      <point x="689" y="961" type="line"/>
      <point x="692" y="948"/>
      <point x="706" y="888"/>
      <point x="718" y="847" type="qcurve" smooth="yes"/>
      <point x="946" y="0" type="line"/>
      <point x="1415" y="0" type="line"/>
      <point x="970" y="1455" type="line"/>
      <point x="444" y="1455" type="line"/>
    </contour>
    <contour>
      <point x="368" y="220" type="line"/>
      <point x="1021" y="220" type="line"/>
      <point x="993" y="525" type="line"/>
      <point x="395" y="525" type="line"/>
    </contour>
  </outline>
</glyph>
<glyph name="J" format="2">
  <advance width="1172"/>
  <unicode hex="004A"/>
  <outline>
    <contour>
      <point x="25" y="501" type="line" smooth="yes"/>
      <point x="25" y="226"/>
      <point x="306" y="-20"/>
      <point x="571" y="-20" type="qcurve" smooth="yes"/>
      <point x="850" y="-20"/>
      <point x="1115" y="266"/>
      <point x="1115" y="524" type="qcurve" smooth="yes"/>
      <point x="1115" y="1456" type="line"/>
      <point x="632" y="1456" type="line"/>
      <point x="632" y="452" type="line" smooth="yes"/>
      <point x="632" y="371"/>
      <point x="583" y="293"/>
      <point x="538" y="293" type="qcurve" smooth="yes"/>
      <point x="493" y="293"/>
      <point x="445" y="359"/>
      <point x="445" y="432" type="qcurve" smooth="yes"/>
      <point x="445" y="595" type="line"/>
      <point x="25" y="595" type="line"/>
    </contour>
  </outline>
</glyph>
<glyph name="K" format="2">
  <advance width="1311"/>
  <unicode hex="004B"/>
  <outline>
    <contour>
      <point x="62" y="0" type="line"/>
      <point x="544" y="0" type="line"/>
      <point x="544" y="427" type="line"/>
      <point x="1340" y="1456" type="line"/>
      <point x="855" y="1456" type="line"/>
      <point x="544" y="1012" type="line"/>
      <point x="544" y="1456" type="line"/>
      <point x="62" y="1456" type="line"/>
    </contour>
    <contour>
      <point x="866" y="0" type="line"/>
      <point x="1402" y="0" type="line"/>
      <point x="815" y="975" type="line"/>
      <point x="509" y="638" type="line"/>
    </contour>
  </outline>
</glyph>
<glyph name="Q" format="2">
  <advance width="1368"/>
  <unicode hex="0051"/>
  <outline>
    <contour>
      <point x="39" y="689" type="line" smooth="yes"/>
      <point x="39" y="322"/>
      <point x="403" y="-20"/>
      <point x="684" y="-20" type="qcurve" smooth="yes"/>
      <point x="966" y="-20"/>
      <point x="1329" y="322"/>
      <point x="1329" y="689" type="qcurve" smooth="yes"/>
      <point x="1329" y="767" type="line" smooth="yes"/>
      <point x="1329" y="1136"/>
      <point x="966" y="1476"/>
      <point x="684" y="1476" type="qcurve" smooth="yes"/>
      <point x="403" y="1476"/>
      <point x="39" y="1136"/>
      <point x="39" y="767" type="qcurve" smooth="yes"/>
    </contour>
    <contour>
      <point x="543" y="529" type="qcurve" smooth="yes"/>
      <point x="543" y="924" type="line" smooth="yes"/>
      <point x="543" y="1049"/>
      <point x="615" y="1154"/>
      <point x="684" y="1154" type="qcurve" smooth="yes"/>
      <point x="753" y="1154"/>
      <point x="825" y="1049"/>
      <point x="825" y="924" type="qcurve" smooth="yes"/>
      <point x="825" y="529" type="line" smooth="yes"/>
      <point x="825" y="404"/>
      <point x="753" y="294"/>
      <point x="684" y="294" type="qcurve" smooth="yes"/>
      <point x="615" y="294"/>
      <point x="543" y="404"/>
    </contour>
    <contour>
      <point x="1036" y="-252" type="line"/>
      <point x="1285" y="27" type="line"/>
      <point x="856" y="451" type="line"/>
      <point x="610" y="173" type="line"/>
    </contour>
  </outline>
</glyph>
<glyph name="grave" format="2">
  <advance width="998"/>
  <unicode hex="0060"/>
  <anchor x="512" y="915" name="_top"/>
  <outline>
    <contour>
      <point x="322" y="1156" type="line"/>
      <point x="719" y="1156" type="line"/>
      <point x="506" y="1509" type="line"/>
      <point x="70" y="1509" type="line"/>
    </contour>
  </outline>
</glyph>
<glyph name="b" format="2">
  <advance width="1206"/>
  <unicode hex="0062"/>
  <outline>
    <contour>
      <point x="42" y="0" type="line"/>
      <point x="501" y="0" type="line"/>
      <point x="501" y="95" type="line"/>
      <point x="502" y="95" type="line"/>
      <point x="544" y="38"/>
      <point x="685" y="-20"/>
      <point x="785" y="-20" type="qcurve" smooth="yes"/>
      <point x="957" y="-20"/>
      <point x="1185" y="252"/>
      <point x="1185" y="452" type="qcurve" smooth="yes"/>
      <point x="1185" y="484" type="line" smooth="yes"/>
      <point x="1185" y="684"/>
      <point x="964" y="942"/>
      <point x="793" y="942" type="qcurve" smooth="yes"/>
      <point x="693" y="942"/>
      <point x="553" y="866"/>
      <point x="506" y="803" type="qcurve"/>
      <point x="506" y="1458" type="line"/>
      <point x="42" y="1458" type="line"/>
    </contour>
    <contour>
      <point x="506" y="360" type="qcurve"/>
      <point x="506" y="554" type="line"/>
      <point x="519" y="586"/>
      <point x="574" y="634"/>
      <point x="612" y="634" type="qcurve" smooth="yes"/>
      <point x="670" y="634"/>
      <point x="725" y="544"/>
      <point x="725" y="470" type="qcurve" smooth="yes"/>
      <point x="725" y="455" type="line" smooth="yes"/>
      <point x="725" y="381"/>
      <point x="670" y="280"/>
      <point x="617" y="280" type="qcurve" smooth="yes"/>
      <point x="573" y="280"/>
      <point x="520" y="328"/>
    </contour>
  </outline>
</glyph>
<glyph name="d" format="2">
  <advance width="1207"/>
  <unicode hex="0064"/>
  <outline>
    <contour>
      <point x="21" y="442" type="line" smooth="yes"/>
      <point x="21" y="242"/>
      <point x="227" y="-20"/>
      <point x="411" y="-20" type="qcurve" smooth="yes"/>
      <point x="518" y="-20"/>
      <point x="673" y="70"/>
      <point x="715" y="133" type="qcurve"/>
      <point x="716" y="133" type="line"/>
      <point x="716" y="0" type="line"/>
      <point x="1165" y="0" type="line"/>
      <point x="1165" y="1458" type="line"/>
      <point x="712" y="1458" type="line"/>
      <point x="712" y="810" type="line"/>
      <point x="670" y="866"/>
      <point x="519" y="934"/>
      <point x="411" y="934" type="qcurve" smooth="yes"/>
      <point x="232" y="934"/>
      <point x="21" y="674"/>
      <point x="21" y="474" type="qcurve" smooth="yes"/>
    </contour>
    <contour>
      <point x="481" y="449" type="qcurve" smooth="yes"/>
      <point x="481" y="464" type="line" smooth="yes"/>
      <point x="481" y="538"/>
      <point x="536" y="635"/>
      <point x="595" y="635" type="qcurve" smooth="yes"/>
      <point x="634" y="635"/>
      <point x="689" y="588"/>
      <point x="701" y="556" type="qcurve"/>
      <point x="701" y="361" type="line"/>
      <point x="689" y="329"/>
      <point x="634" y="279"/>
      <point x="595" y="279" type="qcurve" smooth="yes"/>
      <point x="536" y="279"/>
      <point x="481" y="375"/>
    </contour>
  </outline>
</glyph>
<glyph name="h" format="2">
  <advance width="1185"/>
  <unicode hex="0068"/>
  <outline>
    <contour>
      <point x="42" y="0" type="line"/>
      <point x="508" y="0" type="line"/>
      <point x="508" y="530" type="line"/>
      <point x="524" y="565"/>
      <point x="572" y="609"/>
      <point x="605" y="609" type="qcurve" smooth="yes"/>
      <point x="642" y="609"/>
      <point x="683" y="563"/>
      <point x="683" y="513" type="qcurve" smooth="yes"/>
      <point x="683" y="0" type="line"/>
      <point x="1150" y="0" type="line"/>
      <point x="1150" y="606" type="line" smooth="yes"/>
      <point x="1150" y="783"/>
      <point x="964" y="941"/>
      <point x="817" y="941" type="qcurve" smooth="yes"/>
      <point x="693" y="941"/>
      <point x="538" y="857"/>
      <point x="508" y="793" type="qcurve"/>
      <point x="507" y="1456" type="line"/>
      <point x="42" y="1456" type="line"/>
    </contour>
  </outline>
</glyph>
<glyph name="m" format="2">
  <advance width="1814"/>
  <unicode hex="006D"/>
  <outline>
    <contour>
      <point x="42" y="-1" type="line"/>
      <point x="508" y="-1" type="line"/>
      <point x="508" y="530" type="line"/>
      <point x="521" y="563"/>
      <point x="568" y="609"/>
      <point x="600" y="609" type="qcurve" smooth="yes"/>
      <point x="637" y="609"/>
      <point x="677" y="567"/>
      <point x="677" y="517" type="qcurve" smooth="yes"/>
      <point x="677" y="-1" type="line"/>
      <point x="1145" y="-1" type="line"/>
      <point x="1145" y="531" type="line"/>
      <point x="1158" y="564"/>
      <point x="1206" y="609"/>
      <point x="1238" y="609" type="qcurve" smooth="yes"/>
      <point x="1274" y="609"/>
      <point x="1313" y="567"/>
      <point x="1313" y="517" type="qcurve" smooth="yes"/>
      <point x="1313" y="-1" type="line"/>
      <point x="1781" y="-1" type="line"/>
      <point x="1781" y="610" type="line" smooth="yes"/>
      <point x="1781" y="788"/>
      <point x="1609" y="940"/>
      <point x="1465" y="940" type="qcurve" smooth="yes"/>
      <point x="1349" y="940"/>
      <point x="1164" y="852"/>
      <point x="1109" y="775" type="qcurve"/>
      <point x="1106" y="775" type="line"/>
      <point x="1078" y="856"/>
      <point x="927" y="939"/>
      <point x="823" y="939" type="qcurve" smooth="yes"/>
      <point x="711" y="939"/>
      <point x="551" y="853"/>
      <point x="504" y="779" type="qcurve"/>
      <point x="501" y="779" type="line"/>
      <point x="501" y="913" type="line"/>
      <point x="42" y="913" type="line"/>
    </contour>
  </outline>
</glyph>
<glyph name="o" format="2">
  <advance width="1212"/>
  <unicode hex="006F"/>
  <anchor x="604" y="914" name="top"/>
  <outline>
    <contour>
      <point x="21" y="444" type="line" smooth="yes"/>
      <point x="21" y="233"/>
      <point x="340" y="-25"/>
      <point x="606" y="-25" type="qcurve" smooth="yes"/>
      <point x="873" y="-25"/>
      <point x="1191" y="233"/>
      <point x="1191" y="444" type="qcurve" smooth="yes"/>
      <point x="1191" y="477" type="line" smooth="yes"/>
      <point x="1191" y="687"/>
      <point x="873" y="948"/>
      <point x="606" y="948" type="qcurve" smooth="yes"/>
      <point x="341" y="948"/>
      <point x="21" y="687"/>
      <point x="21" y="477" type="qcurve" smooth="yes"/>
    </contour>
    <contour>
      <point x="487" y="494" type="line" smooth="yes"/>
      <point x="487" y="557"/>
      <point x="546" y="634"/>
      <point x="603" y="634" type="qcurve" smooth="yes"/>
      <point x="660" y="634"/>
      <point x="719" y="557"/>
      <point x="719" y="494" type="qcurve" smooth="yes"/>
      <point x="719" y="430" type="line" smooth="yes"/>
      <point x="719" y="365"/>
      <point x="660" y="284"/>
      <point x="603" y="284" type="qcurve" smooth="yes"/>
      <point x="546" y="284"/>
      <point x="487" y="365"/>
      <point x="487" y="430" type="qcurve" smooth="yes"/>
    </contour>
  </outline>
</glyph>
<glyph name="u" format="2">
  <advance width="1185"/>
  <unicode hex="0075"/>
  <anchor x="587" y="914" name="top"/>
  <outline>
    <contour>
      <point x="35" y="308" type="line" smooth="yes"/>
      <point x="35" y="131"/>
      <point x="220" y="-27"/>
      <point x="367" y="-27" type="qcurve" smooth="yes"/>
      <point x="492" y="-27"/>
      <point x="647" y="60"/>
      <point x="678" y="124" type="qcurve"/>
      <point x="678" y="124" type="line"/>
      <point x="679" y="0" type="line"/>
      <point x="1143" y="0" type="line"/>
      <point x="1143" y="914" type="line"/>
      <point x="676" y="914" type="line"/>
      <point x="676" y="376" type="line"/>
      <point x="661" y="341"/>
      <point x="612" y="297"/>
      <point x="580" y="297" type="qcurve" smooth="yes"/>
      <point x="543" y="297"/>
      <point x="502" y="341"/>
      <point x="502" y="391" type="qcurve" smooth="yes"/>
      <point x="502" y="914" type="line"/>
      <point x="35" y="914" type="line"/>
    </contour>
  </outline>
</glyph>
<glyph name="macron" format="2">
  <advance width="1046"/>
  <unicode hex="00AF"/>
  <anchor x="512" y="914" name="_top"/>
  <outline>
    <contour>
      <point x="254" y="1216" type="line"/>
      <point x="792" y="1216" type="line"/>
      <point x="792" y="1296" type="line"/>
      <point x="254" y="1296" type="line"/>
    </contour>
  </outline>
</glyph>
<glyph name="degree" format="2">
  <advance width="755"/>
  <unicode hex="00B0"/>
  <outline>
    <contour>
      <point x="120" y="1149" type="qcurve" smooth="yes"/>
      <point x="120" y="1008"/>
      <point x="271" y="821"/>
      <point x="378" y="821" type="qcurve" smooth="yes"/>
      <point x="485" y="821"/>
      <point x="635" y="1008"/>
      <point x="635" y="1149" type="qcurve" smooth="yes"/>
      <point x="635" y="1290"/>
      <point x="485" y="1476"/>
      <point x="378" y="1476" type="qcurve" smooth="yes"/>
      <point x="271" y="1476"/>
      <point x="120" y="1290"/>
    </contour>
    <contour>
      <point x="208" y="1149" type="qcurve" smooth="yes"/>
      <point x="208" y="1258"/>
      <point x="304" y="1399"/>
      <point x="378" y="1399" type="qcurve" smooth="yes"/>
      <point x="452" y="1399"/>
      <point x="548" y="1258"/>
      <point x="548" y="1149" type="qcurve" smooth="yes"/>
      <point x="548" y="1040"/>
      <point x="452" y="898"/>
      <point x="378" y="898" type="qcurve" smooth="yes"/>
      <point x="304" y="898"/>
      <point x="208" y="1040"/>
    </contour>
  </outline>
</glyph>
<glyph name="quotedblbase" format="2">
  <advance width="685"/>
  <unicode hex="201E"/>
  <outline>
    <contour>
      <point x="80" y="-129" type="qcurve"/>
      <point x="155" y="-168" type="line"/>
      <point x="201" y="-122"/>
      <point x="253" y="-9"/>
      <point x="253" y="65" type="qcurve" smooth="yes"/>
      <point x="253" y="153" type="line"/>
      <point x="140" y="153" type="line"/>
      <point x="140" y="65" type="line" smooth="yes"/>
      <point x="140" y="5"/>
      <point x="110" y="-86"/>
    </contour>
    <contour>
      <point x="394" y="-129" type="qcurve"/>
      <point x="467" y="-168" type="line"/>
      <point x="514" y="-122"/>
      <point x="565" y="-9"/>
      <point x="565" y="65" type="qcurve" smooth="yes"/>
      <point x="565" y="153" type="line"/>
      <point x="453" y="153" type="line"/>
      <point x="453" y="65" type="line" smooth="yes"/>
      <point x="453" y="5"/>
      <point x="422" y="-86"/>
    </contour>
  </outline>
</glyph>
